<svg width="29" height="29" viewBox="0 0 29 29" fill="none" xmlns="http://www.w3.org/2000/svg">
<path fill-rule="evenodd" clip-rule="evenodd" d="M28.368 13.8823C28.5281 14.0424 28.618 14.2595 28.618 14.4858C28.618 14.7122 28.5281 14.9293 28.368 15.0894L21.1255 22.3319C20.9655 22.492 20.7484 22.5819 20.522 22.5819C20.2956 22.5819 20.0785 22.492 19.9184 22.3319C19.7584 22.1718 19.6684 21.9547 19.6684 21.7284C19.6684 21.502 19.7584 21.2849 19.9184 21.1248L25.704 15.3392L1.20861 15.3405C1.09638 15.3405 0.98525 15.3184 0.881563 15.2754C0.777876 15.2325 0.683664 15.1695 0.604305 15.0901C0.524947 15.0108 0.461996 14.9166 0.419048 14.8129C0.376099 14.7092 0.353994 14.5981 0.353994 14.4858C0.353994 14.3736 0.376099 14.2625 0.419048 14.1588C0.461996 14.0551 0.524947 13.9609 0.604305 13.8815C0.683664 13.8022 0.777876 13.7392 0.881563 13.6963C0.98525 13.6533 1.09638 13.6312 1.20861 13.6312L25.704 13.6324L19.9184 7.84687C19.7584 7.6868 19.6684 7.4697 19.6684 7.24333C19.6684 7.01696 19.7584 6.79985 19.9184 6.63978C20.0785 6.47971 20.2956 6.38979 20.522 6.38979C20.7484 6.38979 20.9655 6.47971 21.1255 6.63978L28.368 13.8823Z" fill="white"/>
</svg>
