<svg width="228" height="337" viewBox="0 0 228 337" fill="none" xmlns="http://www.w3.org/2000/svg">
<circle cx="5.07117" cy="5.07117" r="5.07117" fill="#DBE8DB"/>
<circle cx="5.07117" cy="18.4591" r="5.07117" fill="#DBE8DB"/>
<circle cx="5.07117" cy="31.4413" r="5.07117" fill="#DBE8DB"/>
<circle cx="5.07117" cy="44.4235" r="5.07117" fill="#DBE8DB"/>
<circle cx="5.07117" cy="57.4057" r="5.07117" fill="#DBE8DB"/>
<circle cx="5.07117" cy="70.3879" r="5.07117" fill="#DBE8DB"/>
<circle cx="5.07117" cy="83.7758" r="5.07117" fill="#DBE8DB"/>
<circle cx="5.07117" cy="96.758" r="5.07117" fill="#DBE8DB"/>
<circle cx="5.07117" cy="109.74" r="5.07117" fill="#DBE8DB"/>
<circle cx="5.07117" cy="122.722" r="5.07117" fill="#DBE8DB"/>
<circle cx="5.07117" cy="135.705" r="5.07117" fill="#DBE8DB"/>
<circle cx="5.07117" cy="148.687" r="5.07117" fill="#DBE8DB"/>
<circle cx="5.07117" cy="162.075" r="5.07117" fill="#DBE8DB"/>
<circle cx="5.07117" cy="175.057" r="5.07117" fill="#DBE8DB"/>
<circle cx="5.07117" cy="188.039" r="5.07117" fill="#DBE8DB"/>
<circle cx="5.07117" cy="201.021" r="5.07117" fill="#DBE8DB"/>
<circle cx="5.07117" cy="214.004" r="5.07117" fill="#DBE8DB"/>
<circle cx="5.07117" cy="227.391" r="5.07117" fill="#DBE8DB"/>
<circle cx="5.07117" cy="240.374" r="5.07117" fill="#DBE8DB"/>
<circle cx="5.07117" cy="253.356" r="5.07117" fill="#DBE8DB"/>
<circle cx="5.07117" cy="266.338" r="5.07117" fill="#DBE8DB"/>
<circle cx="5.07117" cy="279.32" r="5.07117" fill="#DBE8DB"/>
<circle cx="5.07117" cy="292.302" r="5.07117" fill="#DBE8DB"/>
<circle cx="5.07117" cy="305.69" r="5.07117" fill="#DBE8DB"/>
<circle cx="5.07117" cy="318.673" r="5.07117" fill="#DBE8DB"/>
<circle cx="5.07117" cy="331.655" r="5.07117" fill="#DBE8DB"/>
<circle cx="18.0534" cy="5.07117" r="5.07117" fill="#DBE8DB"/>
<circle cx="18.0534" cy="18.4591" r="5.07117" fill="#DBE8DB"/>
<circle cx="18.0534" cy="31.4413" r="5.07117" fill="#DBE8DB"/>
<circle cx="18.0534" cy="44.4235" r="5.07117" fill="#DBE8DB"/>
<circle cx="18.0534" cy="57.4057" r="5.07117" fill="#DBE8DB"/>
<circle cx="18.0534" cy="70.3879" r="5.07117" fill="#DBE8DB"/>
<circle cx="18.0534" cy="83.7758" r="5.07117" fill="#DBE8DB"/>
<circle cx="18.0534" cy="96.758" r="5.07117" fill="#DBE8DB"/>
<circle cx="18.0534" cy="109.74" r="5.07117" fill="#DBE8DB"/>
<circle cx="18.0534" cy="122.722" r="5.07117" fill="#DBE8DB"/>
<circle cx="18.0534" cy="135.705" r="5.07117" fill="#DBE8DB"/>
<circle cx="18.0534" cy="148.687" r="5.07117" fill="#DBE8DB"/>
<circle cx="18.0534" cy="162.075" r="5.07117" fill="#DBE8DB"/>
<circle cx="18.0534" cy="175.057" r="5.07117" fill="#DBE8DB"/>
<circle cx="18.0534" cy="188.039" r="5.07117" fill="#DBE8DB"/>
<circle cx="18.0534" cy="201.021" r="5.07117" fill="#DBE8DB"/>
<circle cx="18.0534" cy="214.004" r="5.07117" fill="#DBE8DB"/>
<circle cx="18.0534" cy="227.391" r="5.07117" fill="#DBE8DB"/>
<circle cx="18.0534" cy="240.374" r="5.07117" fill="#DBE8DB"/>
<circle cx="18.0534" cy="253.356" r="5.07117" fill="#DBE8DB"/>
<circle cx="18.0534" cy="266.338" r="5.07117" fill="#DBE8DB"/>
<circle cx="18.0534" cy="279.32" r="5.07117" fill="#DBE8DB"/>
<circle cx="18.0534" cy="292.302" r="5.07117" fill="#DBE8DB"/>
<circle cx="18.0534" cy="305.69" r="5.07117" fill="#DBE8DB"/>
<circle cx="18.0534" cy="318.673" r="5.07117" fill="#DBE8DB"/>
<circle cx="18.0534" cy="331.655" r="5.07117" fill="#DBE8DB"/>
<circle cx="30.6299" cy="5.07117" r="5.07117" fill="#DBE8DB"/>
<circle cx="30.6299" cy="18.4591" r="5.07117" fill="#DBE8DB"/>
<circle cx="30.6299" cy="31.4413" r="5.07117" fill="#DBE8DB"/>
<circle cx="30.6299" cy="44.4235" r="5.07117" fill="#DBE8DB"/>
<circle cx="30.6299" cy="57.4057" r="5.07117" fill="#DBE8DB"/>
<circle cx="30.6299" cy="70.3879" r="5.07117" fill="#DBE8DB"/>
<circle cx="30.6299" cy="83.7758" r="5.07117" fill="#DBE8DB"/>
<circle cx="30.6299" cy="96.758" r="5.07117" fill="#DBE8DB"/>
<circle cx="30.6299" cy="109.74" r="5.07117" fill="#DBE8DB"/>
<circle cx="30.6299" cy="122.722" r="5.07117" fill="#DBE8DB"/>
<circle cx="30.6299" cy="135.705" r="5.07117" fill="#DBE8DB"/>
<circle cx="30.6299" cy="148.687" r="5.07117" fill="#DBE8DB"/>
<circle cx="30.6299" cy="162.075" r="5.07117" fill="#DBE8DB"/>
<circle cx="30.6299" cy="175.057" r="5.07117" fill="#DBE8DB"/>
<circle cx="30.6299" cy="188.039" r="5.07117" fill="#DBE8DB"/>
<circle cx="30.6299" cy="201.021" r="5.07117" fill="#DBE8DB"/>
<circle cx="30.6299" cy="214.004" r="5.07117" fill="#DBE8DB"/>
<circle cx="30.6299" cy="227.391" r="5.07117" fill="#DBE8DB"/>
<circle cx="30.6299" cy="240.374" r="5.07117" fill="#DBE8DB"/>
<circle cx="30.6299" cy="253.356" r="5.07117" fill="#DBE8DB"/>
<circle cx="30.6299" cy="266.338" r="5.07117" fill="#DBE8DB"/>
<circle cx="30.6299" cy="279.32" r="5.07117" fill="#DBE8DB"/>
<circle cx="30.6299" cy="292.302" r="5.07117" fill="#DBE8DB"/>
<circle cx="30.6299" cy="305.69" r="5.07117" fill="#DBE8DB"/>
<circle cx="30.6299" cy="318.673" r="5.07117" fill="#DBE8DB"/>
<circle cx="30.6299" cy="331.655" r="5.07117" fill="#DBE8DB"/>
<circle cx="43.6121" cy="5.07117" r="5.07117" fill="#DBE8DB"/>
<circle cx="43.6121" cy="18.4591" r="5.07117" fill="#DBE8DB"/>
<circle cx="43.6121" cy="31.4413" r="5.07117" fill="#DBE8DB"/>
<circle cx="43.6121" cy="44.4235" r="5.07117" fill="#DBE8DB"/>
<circle cx="43.6121" cy="57.4057" r="5.07117" fill="#DBE8DB"/>
<circle cx="43.6121" cy="70.3879" r="5.07117" fill="#DBE8DB"/>
<circle cx="43.6121" cy="83.7758" r="5.07117" fill="#DBE8DB"/>
<circle cx="43.6121" cy="96.758" r="5.07117" fill="#DBE8DB"/>
<circle cx="43.6121" cy="109.74" r="5.07117" fill="#DBE8DB"/>
<circle cx="43.6121" cy="122.722" r="5.07117" fill="#DBE8DB"/>
<circle cx="43.6121" cy="135.705" r="5.07117" fill="#DBE8DB"/>
<circle cx="43.6121" cy="148.687" r="5.07117" fill="#DBE8DB"/>
<circle cx="43.6121" cy="162.075" r="5.07117" fill="#DBE8DB"/>
<circle cx="43.6121" cy="175.057" r="5.07117" fill="#DBE8DB"/>
<circle cx="43.6121" cy="188.039" r="5.07117" fill="#DBE8DB"/>
<circle cx="43.6121" cy="201.021" r="5.07117" fill="#DBE8DB"/>
<circle cx="43.6121" cy="214.004" r="5.07117" fill="#DBE8DB"/>
<circle cx="43.6121" cy="227.391" r="5.07117" fill="#DBE8DB"/>
<circle cx="43.6121" cy="240.374" r="5.07117" fill="#DBE8DB"/>
<circle cx="43.6121" cy="253.356" r="5.07117" fill="#DBE8DB"/>
<circle cx="43.6121" cy="266.338" r="5.07117" fill="#DBE8DB"/>
<circle cx="43.6121" cy="279.32" r="5.07117" fill="#DBE8DB"/>
<circle cx="43.6121" cy="292.302" r="5.07117" fill="#DBE8DB"/>
<circle cx="43.6121" cy="305.69" r="5.07117" fill="#DBE8DB"/>
<circle cx="43.6121" cy="318.673" r="5.07117" fill="#DBE8DB"/>
<circle cx="43.6121" cy="331.655" r="5.07117" fill="#DBE8DB"/>
<circle cx="56.1886" cy="5.07117" r="5.07117" fill="#DBE8DB"/>
<circle cx="56.1886" cy="18.4591" r="5.07117" fill="#DBE8DB"/>
<circle cx="56.1886" cy="31.4413" r="5.07117" fill="#DBE8DB"/>
<circle cx="56.1886" cy="44.4235" r="5.07117" fill="#DBE8DB"/>
<circle cx="56.1886" cy="57.4057" r="5.07117" fill="#DBE8DB"/>
<circle cx="56.1886" cy="70.3879" r="5.07117" fill="#DBE8DB"/>
<circle cx="56.1886" cy="83.7758" r="5.07117" fill="#DBE8DB"/>
<circle cx="56.1886" cy="96.758" r="5.07117" fill="#DBE8DB"/>
<circle cx="56.1886" cy="109.74" r="5.07117" fill="#DBE8DB"/>
<circle cx="56.1886" cy="122.722" r="5.07117" fill="#DBE8DB"/>
<circle cx="56.1886" cy="135.705" r="5.07117" fill="#DBE8DB"/>
<circle cx="56.1886" cy="148.687" r="5.07117" fill="#DBE8DB"/>
<circle cx="56.1886" cy="162.075" r="5.07117" fill="#DBE8DB"/>
<circle cx="56.1886" cy="175.057" r="5.07117" fill="#DBE8DB"/>
<circle cx="56.1886" cy="188.039" r="5.07117" fill="#DBE8DB"/>
<circle cx="56.1886" cy="201.021" r="5.07117" fill="#DBE8DB"/>
<circle cx="56.1886" cy="214.004" r="5.07117" fill="#DBE8DB"/>
<circle cx="56.1886" cy="227.391" r="5.07117" fill="#DBE8DB"/>
<circle cx="56.1886" cy="240.374" r="5.07117" fill="#DBE8DB"/>
<circle cx="56.1886" cy="253.356" r="5.07117" fill="#DBE8DB"/>
<circle cx="56.1886" cy="266.338" r="5.07117" fill="#DBE8DB"/>
<circle cx="56.1886" cy="279.32" r="5.07117" fill="#DBE8DB"/>
<circle cx="56.1886" cy="292.302" r="5.07117" fill="#DBE8DB"/>
<circle cx="56.1886" cy="305.69" r="5.07117" fill="#DBE8DB"/>
<circle cx="56.1886" cy="318.673" r="5.07117" fill="#DBE8DB"/>
<circle cx="56.1886" cy="331.655" r="5.07117" fill="#DBE8DB"/>
<circle cx="69.1708" cy="5.07117" r="5.07117" fill="#DBE8DB"/>
<circle cx="69.1708" cy="18.4591" r="5.07117" fill="#DBE8DB"/>
<circle cx="69.1708" cy="31.4413" r="5.07117" fill="#DBE8DB"/>
<circle cx="69.1708" cy="44.4235" r="5.07117" fill="#DBE8DB"/>
<circle cx="69.1708" cy="57.4057" r="5.07117" fill="#DBE8DB"/>
<circle cx="69.1708" cy="70.3879" r="5.07117" fill="#DBE8DB"/>
<circle cx="69.1708" cy="83.7758" r="5.07117" fill="#DBE8DB"/>
<circle cx="69.1708" cy="96.758" r="5.07117" fill="#DBE8DB"/>
<circle cx="69.1708" cy="109.74" r="5.07117" fill="#DBE8DB"/>
<circle cx="69.1708" cy="122.722" r="5.07117" fill="#DBE8DB"/>
<circle cx="69.1708" cy="135.705" r="5.07117" fill="#DBE8DB"/>
<circle cx="69.1708" cy="148.687" r="5.07117" fill="#DBE8DB"/>
<circle cx="69.1708" cy="162.075" r="5.07117" fill="#DBE8DB"/>
<circle cx="69.1708" cy="175.057" r="5.07117" fill="#DBE8DB"/>
<circle cx="69.1708" cy="188.039" r="5.07117" fill="#DBE8DB"/>
<circle cx="69.1708" cy="201.021" r="5.07117" fill="#DBE8DB"/>
<circle cx="69.1708" cy="214.004" r="5.07117" fill="#DBE8DB"/>
<circle cx="69.1708" cy="227.391" r="5.07117" fill="#DBE8DB"/>
<circle cx="69.1708" cy="240.374" r="5.07117" fill="#DBE8DB"/>
<circle cx="69.1708" cy="253.356" r="5.07117" fill="#DBE8DB"/>
<circle cx="69.1708" cy="266.338" r="5.07117" fill="#DBE8DB"/>
<circle cx="69.1708" cy="279.32" r="5.07117" fill="#DBE8DB"/>
<circle cx="69.1708" cy="292.302" r="5.07117" fill="#DBE8DB"/>
<circle cx="69.1708" cy="305.69" r="5.07117" fill="#DBE8DB"/>
<circle cx="69.1708" cy="318.673" r="5.07117" fill="#DBE8DB"/>
<circle cx="69.1708" cy="331.655" r="5.07117" fill="#DBE8DB"/>
<circle cx="82.1531" cy="5.07117" r="5.07117" fill="#DBE8DB"/>
<circle cx="82.1531" cy="18.4591" r="5.07117" fill="#DBE8DB"/>
<circle cx="82.1531" cy="31.4413" r="5.07117" fill="#DBE8DB"/>
<circle cx="82.1531" cy="44.4235" r="5.07117" fill="#DBE8DB"/>
<circle cx="82.1531" cy="57.4057" r="5.07117" fill="#DBE8DB"/>
<circle cx="82.1531" cy="70.3879" r="5.07117" fill="#DBE8DB"/>
<circle cx="82.1531" cy="83.7758" r="5.07117" fill="#DBE8DB"/>
<circle cx="82.1531" cy="96.758" r="5.07117" fill="#DBE8DB"/>
<circle cx="82.1531" cy="109.74" r="5.07117" fill="#DBE8DB"/>
<circle cx="82.1531" cy="122.722" r="5.07117" fill="#DBE8DB"/>
<circle cx="82.1531" cy="135.705" r="5.07117" fill="#DBE8DB"/>
<circle cx="82.1531" cy="148.687" r="5.07117" fill="#DBE8DB"/>
<circle cx="82.1531" cy="162.075" r="5.07117" fill="#DBE8DB"/>
<circle cx="82.1531" cy="175.057" r="5.07117" fill="#DBE8DB"/>
<circle cx="82.1531" cy="188.039" r="5.07117" fill="#DBE8DB"/>
<circle cx="82.1531" cy="201.021" r="5.07117" fill="#DBE8DB"/>
<circle cx="82.1531" cy="214.004" r="5.07117" fill="#DBE8DB"/>
<circle cx="82.1531" cy="227.391" r="5.07117" fill="#DBE8DB"/>
<circle cx="82.1531" cy="240.374" r="5.07117" fill="#DBE8DB"/>
<circle cx="82.1531" cy="253.356" r="5.07117" fill="#DBE8DB"/>
<circle cx="82.1531" cy="266.338" r="5.07117" fill="#DBE8DB"/>
<circle cx="82.1531" cy="279.32" r="5.07117" fill="#DBE8DB"/>
<circle cx="82.1531" cy="292.302" r="5.07117" fill="#DBE8DB"/>
<circle cx="82.1531" cy="305.69" r="5.07117" fill="#DBE8DB"/>
<circle cx="82.1531" cy="318.673" r="5.07117" fill="#DBE8DB"/>
<circle cx="82.1531" cy="331.655" r="5.07117" fill="#DBE8DB"/>
<circle cx="94.7296" cy="5.07117" r="5.07117" fill="#DBE8DB"/>
<circle cx="94.7296" cy="18.4591" r="5.07117" fill="#DBE8DB"/>
<circle cx="94.7296" cy="31.4413" r="5.07117" fill="#DBE8DB"/>
<circle cx="94.7296" cy="44.4235" r="5.07117" fill="#DBE8DB"/>
<circle cx="94.7296" cy="57.4057" r="5.07117" fill="#DBE8DB"/>
<circle cx="94.7296" cy="70.3879" r="5.07117" fill="#DBE8DB"/>
<circle cx="94.7296" cy="83.7758" r="5.07117" fill="#DBE8DB"/>
<circle cx="94.7296" cy="96.758" r="5.07117" fill="#DBE8DB"/>
<circle cx="94.7296" cy="109.74" r="5.07117" fill="#DBE8DB"/>
<circle cx="94.7296" cy="122.722" r="5.07117" fill="#DBE8DB"/>
<circle cx="94.7296" cy="135.705" r="5.07117" fill="#DBE8DB"/>
<circle cx="94.7296" cy="148.687" r="5.07117" fill="#DBE8DB"/>
<circle cx="94.7296" cy="162.075" r="5.07117" fill="#DBE8DB"/>
<circle cx="94.7296" cy="175.057" r="5.07117" fill="#DBE8DB"/>
<circle cx="94.7296" cy="188.039" r="5.07117" fill="#DBE8DB"/>
<circle cx="94.7296" cy="201.021" r="5.07117" fill="#DBE8DB"/>
<circle cx="94.7296" cy="214.004" r="5.07117" fill="#DBE8DB"/>
<circle cx="94.7296" cy="227.391" r="5.07117" fill="#DBE8DB"/>
<circle cx="94.7296" cy="240.374" r="5.07117" fill="#DBE8DB"/>
<circle cx="94.7296" cy="253.356" r="5.07117" fill="#DBE8DB"/>
<circle cx="94.7296" cy="266.338" r="5.07117" fill="#DBE8DB"/>
<circle cx="94.7296" cy="279.32" r="5.07117" fill="#DBE8DB"/>
<circle cx="94.7296" cy="292.302" r="5.07117" fill="#DBE8DB"/>
<circle cx="94.7296" cy="305.69" r="5.07117" fill="#DBE8DB"/>
<circle cx="94.7296" cy="318.673" r="5.07117" fill="#DBE8DB"/>
<circle cx="94.7296" cy="331.655" r="5.07117" fill="#DBE8DB"/>
<circle cx="107.712" cy="5.07117" r="5.07117" fill="#DBE8DB"/>
<circle cx="107.712" cy="18.4591" r="5.07117" fill="#DBE8DB"/>
<circle cx="107.712" cy="31.4413" r="5.07117" fill="#DBE8DB"/>
<circle cx="107.712" cy="44.4235" r="5.07117" fill="#DBE8DB"/>
<circle cx="107.712" cy="57.4057" r="5.07117" fill="#DBE8DB"/>
<circle cx="107.712" cy="70.3879" r="5.07117" fill="#DBE8DB"/>
<circle cx="107.712" cy="83.7758" r="5.07117" fill="#DBE8DB"/>
<circle cx="107.712" cy="96.758" r="5.07117" fill="#DBE8DB"/>
<circle cx="107.712" cy="109.74" r="5.07117" fill="#DBE8DB"/>
<circle cx="107.712" cy="122.722" r="5.07117" fill="#DBE8DB"/>
<circle cx="107.712" cy="135.705" r="5.07117" fill="#DBE8DB"/>
<circle cx="107.712" cy="148.687" r="5.07117" fill="#DBE8DB"/>
<circle cx="107.712" cy="162.075" r="5.07117" fill="#DBE8DB"/>
<circle cx="107.712" cy="175.057" r="5.07117" fill="#DBE8DB"/>
<circle cx="107.712" cy="188.039" r="5.07117" fill="#DBE8DB"/>
<circle cx="107.712" cy="201.021" r="5.07117" fill="#DBE8DB"/>
<circle cx="107.712" cy="214.004" r="5.07117" fill="#DBE8DB"/>
<circle cx="107.712" cy="227.391" r="5.07117" fill="#DBE8DB"/>
<circle cx="107.712" cy="240.374" r="5.07117" fill="#DBE8DB"/>
<circle cx="107.712" cy="253.356" r="5.07117" fill="#DBE8DB"/>
<circle cx="107.712" cy="266.338" r="5.07117" fill="#DBE8DB"/>
<circle cx="107.712" cy="279.32" r="5.07117" fill="#DBE8DB"/>
<circle cx="107.712" cy="292.302" r="5.07117" fill="#DBE8DB"/>
<circle cx="107.712" cy="305.69" r="5.07117" fill="#DBE8DB"/>
<circle cx="107.712" cy="318.673" r="5.07117" fill="#DBE8DB"/>
<circle cx="107.712" cy="331.655" r="5.07117" fill="#DBE8DB"/>
<circle cx="120.288" cy="5.07117" r="5.07117" fill="#DBE8DB"/>
<circle cx="120.288" cy="18.4591" r="5.07117" fill="#DBE8DB"/>
<circle cx="120.288" cy="31.4413" r="5.07117" fill="#DBE8DB"/>
<circle cx="120.288" cy="44.4235" r="5.07117" fill="#DBE8DB"/>
<circle cx="120.288" cy="57.4057" r="5.07117" fill="#DBE8DB"/>
<circle cx="120.288" cy="70.3879" r="5.07117" fill="#DBE8DB"/>
<circle cx="120.288" cy="83.7758" r="5.07117" fill="#DBE8DB"/>
<circle cx="120.288" cy="96.758" r="5.07117" fill="#DBE8DB"/>
<circle cx="120.288" cy="109.74" r="5.07117" fill="#DBE8DB"/>
<circle cx="120.288" cy="122.722" r="5.07117" fill="#DBE8DB"/>
<circle cx="120.288" cy="135.705" r="5.07117" fill="#DBE8DB"/>
<circle cx="120.288" cy="148.687" r="5.07117" fill="#DBE8DB"/>
<circle cx="120.288" cy="162.075" r="5.07117" fill="#DBE8DB"/>
<circle cx="120.288" cy="175.057" r="5.07117" fill="#DBE8DB"/>
<circle cx="120.288" cy="188.039" r="5.07117" fill="#DBE8DB"/>
<circle cx="120.288" cy="201.021" r="5.07117" fill="#DBE8DB"/>
<circle cx="120.288" cy="214.004" r="5.07117" fill="#DBE8DB"/>
<circle cx="120.288" cy="227.391" r="5.07117" fill="#DBE8DB"/>
<circle cx="120.288" cy="240.374" r="5.07117" fill="#DBE8DB"/>
<circle cx="120.288" cy="253.356" r="5.07117" fill="#DBE8DB"/>
<circle cx="120.288" cy="266.338" r="5.07117" fill="#DBE8DB"/>
<circle cx="120.288" cy="279.32" r="5.07117" fill="#DBE8DB"/>
<circle cx="120.288" cy="292.302" r="5.07117" fill="#DBE8DB"/>
<circle cx="120.288" cy="305.69" r="5.07117" fill="#DBE8DB"/>
<circle cx="120.288" cy="318.673" r="5.07117" fill="#DBE8DB"/>
<circle cx="120.288" cy="331.655" r="5.07117" fill="#DBE8DB"/>
<circle cx="133.271" cy="5.07117" r="5.07117" fill="#DBE8DB"/>
<circle cx="133.271" cy="18.4591" r="5.07117" fill="#DBE8DB"/>
<circle cx="133.271" cy="31.4413" r="5.07117" fill="#DBE8DB"/>
<circle cx="133.271" cy="44.4235" r="5.07117" fill="#DBE8DB"/>
<circle cx="133.271" cy="57.4057" r="5.07117" fill="#DBE8DB"/>
<circle cx="133.271" cy="70.3879" r="5.07117" fill="#DBE8DB"/>
<circle cx="133.271" cy="83.7758" r="5.07117" fill="#DBE8DB"/>
<circle cx="133.271" cy="96.758" r="5.07117" fill="#DBE8DB"/>
<circle cx="133.271" cy="109.74" r="5.07117" fill="#DBE8DB"/>
<circle cx="133.271" cy="122.722" r="5.07117" fill="#DBE8DB"/>
<circle cx="133.271" cy="135.705" r="5.07117" fill="#DBE8DB"/>
<circle cx="133.271" cy="148.687" r="5.07117" fill="#DBE8DB"/>
<circle cx="133.271" cy="162.075" r="5.07117" fill="#DBE8DB"/>
<circle cx="133.271" cy="175.057" r="5.07117" fill="#DBE8DB"/>
<circle cx="133.271" cy="188.039" r="5.07117" fill="#DBE8DB"/>
<circle cx="133.271" cy="201.021" r="5.07117" fill="#DBE8DB"/>
<circle cx="133.271" cy="214.004" r="5.07117" fill="#DBE8DB"/>
<circle cx="133.271" cy="227.391" r="5.07117" fill="#DBE8DB"/>
<circle cx="133.271" cy="240.374" r="5.07117" fill="#DBE8DB"/>
<circle cx="133.271" cy="253.356" r="5.07117" fill="#DBE8DB"/>
<circle cx="133.271" cy="266.338" r="5.07117" fill="#DBE8DB"/>
<circle cx="133.271" cy="279.32" r="5.07117" fill="#DBE8DB"/>
<circle cx="133.271" cy="292.302" r="5.07117" fill="#DBE8DB"/>
<circle cx="133.271" cy="305.69" r="5.07117" fill="#DBE8DB"/>
<circle cx="133.271" cy="318.673" r="5.07117" fill="#DBE8DB"/>
<circle cx="133.271" cy="331.655" r="5.07117" fill="#DBE8DB"/>
<circle cx="145.847" cy="5.07117" r="5.07117" fill="#DBE8DB"/>
<circle cx="145.847" cy="18.4591" r="5.07117" fill="#DBE8DB"/>
<circle cx="145.847" cy="31.4413" r="5.07117" fill="#DBE8DB"/>
<circle cx="145.847" cy="44.4235" r="5.07117" fill="#DBE8DB"/>
<circle cx="145.847" cy="57.4057" r="5.07117" fill="#DBE8DB"/>
<circle cx="145.847" cy="70.3879" r="5.07117" fill="#DBE8DB"/>
<circle cx="145.847" cy="83.7758" r="5.07117" fill="#DBE8DB"/>
<circle cx="145.847" cy="96.758" r="5.07117" fill="#DBE8DB"/>
<circle cx="145.847" cy="109.74" r="5.07117" fill="#DBE8DB"/>
<circle cx="145.847" cy="122.722" r="5.07117" fill="#DBE8DB"/>
<circle cx="145.847" cy="135.705" r="5.07117" fill="#DBE8DB"/>
<circle cx="145.847" cy="148.687" r="5.07117" fill="#DBE8DB"/>
<circle cx="145.847" cy="162.075" r="5.07117" fill="#DBE8DB"/>
<circle cx="145.847" cy="175.057" r="5.07117" fill="#DBE8DB"/>
<circle cx="145.847" cy="188.039" r="5.07117" fill="#DBE8DB"/>
<circle cx="145.847" cy="201.021" r="5.07117" fill="#DBE8DB"/>
<circle cx="145.847" cy="214.004" r="5.07117" fill="#DBE8DB"/>
<circle cx="145.847" cy="227.391" r="5.07117" fill="#DBE8DB"/>
<circle cx="145.847" cy="240.374" r="5.07117" fill="#DBE8DB"/>
<circle cx="145.847" cy="253.356" r="5.07117" fill="#DBE8DB"/>
<circle cx="145.847" cy="266.338" r="5.07117" fill="#DBE8DB"/>
<circle cx="145.847" cy="279.32" r="5.07117" fill="#DBE8DB"/>
<circle cx="145.847" cy="292.302" r="5.07117" fill="#DBE8DB"/>
<circle cx="145.847" cy="305.69" r="5.07117" fill="#DBE8DB"/>
<circle cx="145.847" cy="318.673" r="5.07117" fill="#DBE8DB"/>
<circle cx="145.847" cy="331.655" r="5.07117" fill="#DBE8DB"/>
<circle cx="158.829" cy="5.07117" r="5.07117" fill="#DBE8DB"/>
<circle cx="158.829" cy="18.4591" r="5.07117" fill="#DBE8DB"/>
<circle cx="158.829" cy="31.4413" r="5.07117" fill="#DBE8DB"/>
<circle cx="158.829" cy="44.4235" r="5.07117" fill="#DBE8DB"/>
<circle cx="158.829" cy="57.4057" r="5.07117" fill="#DBE8DB"/>
<circle cx="158.829" cy="70.3879" r="5.07117" fill="#DBE8DB"/>
<circle cx="158.829" cy="83.7758" r="5.07117" fill="#DBE8DB"/>
<circle cx="158.829" cy="96.758" r="5.07117" fill="#DBE8DB"/>
<circle cx="158.829" cy="109.74" r="5.07117" fill="#DBE8DB"/>
<circle cx="158.829" cy="122.722" r="5.07117" fill="#DBE8DB"/>
<circle cx="158.829" cy="135.705" r="5.07117" fill="#DBE8DB"/>
<circle cx="158.829" cy="148.687" r="5.07117" fill="#DBE8DB"/>
<circle cx="158.829" cy="162.075" r="5.07117" fill="#DBE8DB"/>
<circle cx="158.829" cy="175.057" r="5.07117" fill="#DBE8DB"/>
<circle cx="158.829" cy="188.039" r="5.07117" fill="#DBE8DB"/>
<circle cx="158.829" cy="201.021" r="5.07117" fill="#DBE8DB"/>
<circle cx="158.829" cy="214.004" r="5.07117" fill="#DBE8DB"/>
<circle cx="158.829" cy="227.391" r="5.07117" fill="#DBE8DB"/>
<circle cx="158.829" cy="240.374" r="5.07117" fill="#DBE8DB"/>
<circle cx="158.829" cy="253.356" r="5.07117" fill="#DBE8DB"/>
<circle cx="158.829" cy="266.338" r="5.07117" fill="#DBE8DB"/>
<circle cx="158.829" cy="279.32" r="5.07117" fill="#DBE8DB"/>
<circle cx="158.829" cy="292.302" r="5.07117" fill="#DBE8DB"/>
<circle cx="158.829" cy="305.69" r="5.07117" fill="#DBE8DB"/>
<circle cx="158.829" cy="318.673" r="5.07117" fill="#DBE8DB"/>
<circle cx="158.829" cy="331.655" r="5.07117" fill="#DBE8DB"/>
<circle cx="171.811" cy="5.07117" r="5.07117" fill="#DBE8DB"/>
<circle cx="171.811" cy="18.4591" r="5.07117" fill="#DBE8DB"/>
<circle cx="171.811" cy="31.4413" r="5.07117" fill="#DBE8DB"/>
<circle cx="171.811" cy="44.4235" r="5.07117" fill="#DBE8DB"/>
<circle cx="171.811" cy="57.4057" r="5.07117" fill="#DBE8DB"/>
<circle cx="171.811" cy="70.3879" r="5.07117" fill="#DBE8DB"/>
<circle cx="171.811" cy="83.7758" r="5.07117" fill="#DBE8DB"/>
<circle cx="171.811" cy="96.758" r="5.07117" fill="#DBE8DB"/>
<circle cx="171.811" cy="109.74" r="5.07117" fill="#DBE8DB"/>
<circle cx="171.811" cy="122.722" r="5.07117" fill="#DBE8DB"/>
<circle cx="171.811" cy="135.705" r="5.07117" fill="#DBE8DB"/>
<circle cx="171.811" cy="148.687" r="5.07117" fill="#DBE8DB"/>
<circle cx="171.811" cy="162.075" r="5.07117" fill="#DBE8DB"/>
<circle cx="171.811" cy="175.057" r="5.07117" fill="#DBE8DB"/>
<circle cx="171.811" cy="188.039" r="5.07117" fill="#DBE8DB"/>
<circle cx="171.811" cy="201.021" r="5.07117" fill="#DBE8DB"/>
<circle cx="171.811" cy="214.004" r="5.07117" fill="#DBE8DB"/>
<circle cx="171.811" cy="227.391" r="5.07117" fill="#DBE8DB"/>
<circle cx="171.811" cy="240.374" r="5.07117" fill="#DBE8DB"/>
<circle cx="171.811" cy="253.356" r="5.07117" fill="#DBE8DB"/>
<circle cx="171.811" cy="266.338" r="5.07117" fill="#DBE8DB"/>
<circle cx="171.811" cy="279.32" r="5.07117" fill="#DBE8DB"/>
<circle cx="171.811" cy="292.302" r="5.07117" fill="#DBE8DB"/>
<circle cx="171.811" cy="305.69" r="5.07117" fill="#DBE8DB"/>
<circle cx="171.811" cy="318.673" r="5.07117" fill="#DBE8DB"/>
<circle cx="171.811" cy="331.655" r="5.07117" fill="#DBE8DB"/>
<circle cx="184.388" cy="5.07117" r="5.07117" fill="#DBE8DB"/>
<circle cx="184.388" cy="18.4591" r="5.07117" fill="#DBE8DB"/>
<circle cx="184.388" cy="31.4413" r="5.07117" fill="#DBE8DB"/>
<circle cx="184.388" cy="44.4235" r="5.07117" fill="#DBE8DB"/>
<circle cx="184.388" cy="57.4057" r="5.07117" fill="#DBE8DB"/>
<circle cx="184.388" cy="70.3879" r="5.07117" fill="#DBE8DB"/>
<circle cx="184.388" cy="83.7758" r="5.07117" fill="#DBE8DB"/>
<circle cx="184.388" cy="96.758" r="5.07117" fill="#DBE8DB"/>
<circle cx="184.388" cy="109.74" r="5.07117" fill="#DBE8DB"/>
<circle cx="184.388" cy="122.722" r="5.07117" fill="#DBE8DB"/>
<circle cx="184.388" cy="135.705" r="5.07117" fill="#DBE8DB"/>
<circle cx="184.388" cy="148.687" r="5.07117" fill="#DBE8DB"/>
<circle cx="184.388" cy="162.075" r="5.07117" fill="#DBE8DB"/>
<circle cx="184.388" cy="175.057" r="5.07117" fill="#DBE8DB"/>
<circle cx="184.388" cy="188.039" r="5.07117" fill="#DBE8DB"/>
<circle cx="184.388" cy="201.021" r="5.07117" fill="#DBE8DB"/>
<circle cx="184.388" cy="214.004" r="5.07117" fill="#DBE8DB"/>
<circle cx="184.388" cy="227.391" r="5.07117" fill="#DBE8DB"/>
<circle cx="184.388" cy="240.374" r="5.07117" fill="#DBE8DB"/>
<circle cx="184.388" cy="253.356" r="5.07117" fill="#DBE8DB"/>
<circle cx="184.388" cy="266.338" r="5.07117" fill="#DBE8DB"/>
<circle cx="184.388" cy="279.32" r="5.07117" fill="#DBE8DB"/>
<circle cx="184.388" cy="292.302" r="5.07117" fill="#DBE8DB"/>
<circle cx="184.388" cy="305.69" r="5.07117" fill="#DBE8DB"/>
<circle cx="184.388" cy="318.673" r="5.07117" fill="#DBE8DB"/>
<circle cx="184.388" cy="331.655" r="5.07117" fill="#DBE8DB"/>
<circle cx="197.37" cy="5.07117" r="5.07117" fill="#DBE8DB"/>
<circle cx="197.37" cy="18.4591" r="5.07117" fill="#DBE8DB"/>
<circle cx="197.37" cy="31.4413" r="5.07117" fill="#DBE8DB"/>
<circle cx="197.37" cy="44.4235" r="5.07117" fill="#DBE8DB"/>
<circle cx="197.37" cy="57.4057" r="5.07117" fill="#DBE8DB"/>
<circle cx="197.37" cy="70.3879" r="5.07117" fill="#DBE8DB"/>
<circle cx="197.37" cy="83.7758" r="5.07117" fill="#DBE8DB"/>
<circle cx="197.37" cy="96.758" r="5.07117" fill="#DBE8DB"/>
<circle cx="197.37" cy="109.74" r="5.07117" fill="#DBE8DB"/>
<circle cx="197.37" cy="122.722" r="5.07117" fill="#DBE8DB"/>
<circle cx="197.37" cy="135.705" r="5.07117" fill="#DBE8DB"/>
<circle cx="197.37" cy="148.687" r="5.07117" fill="#DBE8DB"/>
<circle cx="197.37" cy="162.075" r="5.07117" fill="#DBE8DB"/>
<circle cx="197.37" cy="175.057" r="5.07117" fill="#DBE8DB"/>
<circle cx="197.37" cy="188.039" r="5.07117" fill="#DBE8DB"/>
<circle cx="197.37" cy="201.021" r="5.07117" fill="#DBE8DB"/>
<circle cx="197.37" cy="214.004" r="5.07117" fill="#DBE8DB"/>
<circle cx="197.37" cy="227.391" r="5.07117" fill="#DBE8DB"/>
<circle cx="197.37" cy="240.374" r="5.07117" fill="#DBE8DB"/>
<circle cx="197.37" cy="253.356" r="5.07117" fill="#DBE8DB"/>
<circle cx="197.37" cy="266.338" r="5.07117" fill="#DBE8DB"/>
<circle cx="197.37" cy="279.32" r="5.07117" fill="#DBE8DB"/>
<circle cx="197.37" cy="292.302" r="5.07117" fill="#DBE8DB"/>
<circle cx="197.37" cy="305.69" r="5.07117" fill="#DBE8DB"/>
<circle cx="197.37" cy="318.673" r="5.07117" fill="#DBE8DB"/>
<circle cx="197.37" cy="331.655" r="5.07117" fill="#DBE8DB"/>
<circle cx="209.947" cy="5.07117" r="5.07117" fill="#DBE8DB"/>
<circle cx="209.947" cy="18.4591" r="5.07117" fill="#DBE8DB"/>
<circle cx="209.947" cy="31.4413" r="5.07117" fill="#DBE8DB"/>
<circle cx="209.947" cy="44.4235" r="5.07117" fill="#DBE8DB"/>
<circle cx="209.947" cy="57.4057" r="5.07117" fill="#DBE8DB"/>
<circle cx="209.947" cy="70.3879" r="5.07117" fill="#DBE8DB"/>
<circle cx="209.947" cy="83.7758" r="5.07117" fill="#DBE8DB"/>
<circle cx="209.947" cy="96.758" r="5.07117" fill="#DBE8DB"/>
<circle cx="209.947" cy="109.74" r="5.07117" fill="#DBE8DB"/>
<circle cx="209.947" cy="122.722" r="5.07117" fill="#DBE8DB"/>
<circle cx="209.947" cy="135.705" r="5.07117" fill="#DBE8DB"/>
<circle cx="209.947" cy="148.687" r="5.07117" fill="#DBE8DB"/>
<circle cx="209.947" cy="162.075" r="5.07117" fill="#DBE8DB"/>
<circle cx="209.947" cy="175.057" r="5.07117" fill="#DBE8DB"/>
<circle cx="209.947" cy="188.039" r="5.07117" fill="#DBE8DB"/>
<circle cx="209.947" cy="201.021" r="5.07117" fill="#DBE8DB"/>
<circle cx="209.947" cy="214.004" r="5.07117" fill="#DBE8DB"/>
<circle cx="209.947" cy="227.391" r="5.07117" fill="#DBE8DB"/>
<circle cx="209.947" cy="240.374" r="5.07117" fill="#DBE8DB"/>
<circle cx="209.947" cy="253.356" r="5.07117" fill="#DBE8DB"/>
<circle cx="209.947" cy="266.338" r="5.07117" fill="#DBE8DB"/>
<circle cx="209.947" cy="279.32" r="5.07117" fill="#DBE8DB"/>
<circle cx="209.947" cy="292.302" r="5.07117" fill="#DBE8DB"/>
<circle cx="209.947" cy="305.69" r="5.07117" fill="#DBE8DB"/>
<circle cx="209.947" cy="318.673" r="5.07117" fill="#DBE8DB"/>
<circle cx="209.947" cy="331.655" r="5.07117" fill="#DBE8DB"/>
<circle cx="222.929" cy="5.07117" r="5.07117" fill="#DBE8DB"/>
<circle cx="222.929" cy="18.4591" r="5.07117" fill="#DBE8DB"/>
<circle cx="222.929" cy="31.4413" r="5.07117" fill="#DBE8DB"/>
<circle cx="222.929" cy="44.4235" r="5.07117" fill="#DBE8DB"/>
<circle cx="222.929" cy="57.4057" r="5.07117" fill="#DBE8DB"/>
<circle cx="222.929" cy="70.3879" r="5.07117" fill="#DBE8DB"/>
<circle cx="222.929" cy="83.7758" r="5.07117" fill="#DBE8DB"/>
<circle cx="222.929" cy="96.758" r="5.07117" fill="#DBE8DB"/>
<circle cx="222.929" cy="109.74" r="5.07117" fill="#DBE8DB"/>
<circle cx="222.929" cy="122.722" r="5.07117" fill="#DBE8DB"/>
<circle cx="222.929" cy="135.705" r="5.07117" fill="#DBE8DB"/>
<circle cx="222.929" cy="148.687" r="5.07117" fill="#DBE8DB"/>
<circle cx="222.929" cy="162.075" r="5.07117" fill="#DBE8DB"/>
<circle cx="222.929" cy="175.057" r="5.07117" fill="#DBE8DB"/>
<circle cx="222.929" cy="188.039" r="5.07117" fill="#DBE8DB"/>
<circle cx="222.929" cy="201.021" r="5.07117" fill="#DBE8DB"/>
<circle cx="222.929" cy="214.004" r="5.07117" fill="#DBE8DB"/>
<circle cx="222.929" cy="227.391" r="5.07117" fill="#DBE8DB"/>
<circle cx="222.929" cy="240.374" r="5.07117" fill="#DBE8DB"/>
<circle cx="222.929" cy="253.356" r="5.07117" fill="#DBE8DB"/>
<circle cx="222.929" cy="266.338" r="5.07117" fill="#DBE8DB"/>
<circle cx="222.929" cy="279.32" r="5.07117" fill="#DBE8DB"/>
<circle cx="222.929" cy="292.302" r="5.07117" fill="#DBE8DB"/>
<circle cx="222.929" cy="305.69" r="5.07117" fill="#DBE8DB"/>
<circle cx="222.929" cy="318.673" r="5.07117" fill="#DBE8DB"/>
<circle cx="222.929" cy="331.655" r="5.07117" fill="#DBE8DB"/>
</svg>
